<?xml version="1.0" encoding="utf-8"?>
<!-- Generator: Adobe Illustrator 24.0.0, SVG Export Plug-In . SVG Version: 6.00 Build 0)  -->
<svg version="1.1" id="Слой_1" xmlns="http://www.w3.org/2000/svg" xmlns:xlink="http://www.w3.org/1999/xlink" x="0px" y="0px"
	 viewBox="0 0 426 428" style="enable-background:new 0 0 426 428;" xml:space="preserve">
<style type="text/css">
	.st0{fill:#3D9BDB;}
	.st1{fill:#FFFFFF;}
	.st2{fill-opacity:0;stroke:#FFFFFF;}
</style>
<g>
	<g>
		<g>
			<path class="st0" d="M421.4,213.8C421.4,329.3,328.5,423,214,423C99.6,423,6.7,329.3,6.7,213.8C6.7,98.4,99.6,4.7,214,4.7
				C328.5,4.7,421.4,98.4,421.4,213.8z"/>
		</g>
	</g>
	<g>
		<g>
			<path id="beqSohzgn" class="st1" d="M202.7,120.4l3.1,0.3l3,0.4l3,0.6l3,0.7l2.9,0.8l2.9,0.9l2.8,1l2.8,1.1l2.7,1.2l2.6,1.3
				l2.6,1.4l2.5,1.5l2.5,1.6l2.4,1.7l2.3,1.8l2.3,1.9l2.2,1.9l2.1,2l2,2.1l1.9,2.2l1.9,2.3l1.8,2.3l1.7,2.4l1.6,2.5l1.5,2.5l1.4,2.6
				l1.3,2.6l1.2,2.7l1.1,2.8l1,2.8l0.9,2.9l0.8,2.9l0.7,2.9l0.5,3l0.4,3l0.3,3.1l0.2,3.1l0.1,3.1l-0.1,3.1l-0.2,3.1l-0.3,3.1l-0.4,3
				l-0.5,3l-0.7,3l-0.8,2.9l-0.9,2.9l-1,2.8l-1.1,2.8l-1.2,2.7l-1.3,2.7l-1.4,2.6l-1.5,2.5l-1.5,2.4l48.1,48.1L287,307.5l-48.1-48.1
				l-2.4,1.5l-2.5,1.5l-2.6,1.4l-2.6,1.3l-2.7,1.2l-2.8,1.1l-2.8,1l-2.9,0.9l-2.9,0.8l-3,0.7l-3,0.6l-3,0.4l-3.1,0.3l-3.1,0.2
				l-3.1,0.1l-3.1-0.1l-3.1-0.2l-3.1-0.3l-3-0.4l-3-0.6l-3-0.7l-2.9-0.8l-2.9-0.9l-2.8-1l-2.8-1.1l-2.7-1.2l-2.6-1.3l-2.6-1.4
				l-2.5-1.5l-2.5-1.6l-2.4-1.7l-2.3-1.8l-2.3-1.9l-2.2-2l-2.1-2l-2-2.1l-1.9-2.2l-1.9-2.3l-1.8-2.3l-1.7-2.4l-1.6-2.5l-1.5-2.5
				l-1.4-2.6l-1.3-2.7l-1.2-2.7l-1.1-2.8l-1-2.8l-0.9-2.9l-0.8-2.9l-0.7-3l-0.5-3l-0.4-3l-0.3-3.1l-0.2-3.1l-0.1-3.1l0.1-3.1
				l0.2-3.1l0.3-3.1l0.4-3l0.5-3l0.7-2.9l0.8-2.9l0.9-2.9l1-2.8l1.1-2.8l1.2-2.7l1.3-2.6l1.4-2.6l1.5-2.5l1.6-2.5l1.7-2.4l1.8-2.3
				l1.9-2.3l1.9-2.2l2-2.1l2.1-2l2.2-1.9l2.3-1.9l2.3-1.8l2.4-1.7l2.5-1.6l2.5-1.5l2.6-1.4l2.6-1.3l2.7-1.2l2.8-1.1l2.8-1l2.9-0.9
				l2.9-0.8l3-0.7l3-0.6l3-0.4l3.1-0.3l3.1-0.2l3.1-0.1l3.1,0.1L202.7,120.4z M192.6,149.5l-1.9,0.2l-1.9,0.3l-1.9,0.3l-1.8,0.4
				l-1.8,0.5l-1.8,0.6l-1.7,0.6l-1.7,0.7l-1.7,0.7l-1.6,0.8l-1.6,0.9l-1.6,0.9l-1.5,1l-1.5,1l-1.4,1.1l-1.4,1.1l-1.3,1.2l-1.3,1.3
				l-1.3,1.3l-1.2,1.4l-1.1,1.4l-1.1,1.4l-1,1.5l-1,1.5l-0.9,1.6l-0.9,1.6l-0.8,1.6l-0.8,1.7l-0.7,1.7l-0.6,1.7l-0.5,1.8l-0.5,1.8
				l-0.4,1.8l-0.3,1.8l-0.3,1.9l-0.2,1.9l-0.1,1.9l0,1.9l0,1.9l0.1,1.9l0.2,1.9l0.3,1.9l0.3,1.8l0.4,1.8l0.5,1.8l0.5,1.8l0.6,1.7
				l0.7,1.7l0.8,1.7l0.8,1.6l0.9,1.6l0.9,1.6l1,1.5l1,1.5l1.1,1.4l1.1,1.4l1.2,1.4l1.3,1.3l1.3,1.3l1.3,1.2l1.4,1.1l1.4,1.1l1.5,1
				l1.5,1l1.6,0.9l1.6,0.9l1.6,0.8l1.7,0.7l1.7,0.7l1.7,0.6l1.8,0.5l1.8,0.5l1.8,0.4l1.9,0.3l1.9,0.3l1.9,0.2l1.9,0.1l1.9,0l1.9,0
				l1.9-0.1l1.9-0.2l1.9-0.3l1.9-0.3l1.8-0.4l1.8-0.5l1.8-0.5l1.7-0.6l1.7-0.7l1.7-0.7l1.6-0.8l1.6-0.9l1.6-0.9l1.5-1l1.5-1l1.4-1.1
				l1.4-1.1l1.3-1.2l1.3-1.3l1.3-1.3l1.2-1.4l1.1-1.4l1.1-1.4l1-1.5l1-1.5l0.9-1.6l0.9-1.6l0.8-1.6l0.8-1.7l0.7-1.7l0.6-1.7l0.5-1.8
				l0.5-1.8l0.4-1.8l0.3-1.8l0.3-1.9l0.2-1.9l0.1-1.9l0-1.9l0-1.9l-0.1-1.9l-0.2-1.9l-0.3-1.9l-0.3-1.8L242,185l-0.5-1.8l-0.5-1.8
				l-0.6-1.7l-0.7-1.7l-0.8-1.7l-0.8-1.6l-0.9-1.6l-0.9-1.6l-1-1.5l-1-1.5l-1.1-1.4l-1.1-1.4l-1.2-1.4l-1.3-1.3l-1.3-1.3l-1.3-1.2
				l-1.4-1.1l-1.4-1.1l-1.5-1l-1.5-1l-1.6-0.9l-1.6-0.9l-1.6-0.8l-1.7-0.7l-1.7-0.7l-1.7-0.6l-1.8-0.6l-1.8-0.5l-1.8-0.4l-1.9-0.3
				l-1.9-0.3l-1.9-0.2l-1.9-0.1l-1.9,0l-1.9,0L192.6,149.5z"/>
		</g>
		<g>
			<g>
				<path id="beqSohzgn_1_" class="st2" d="M202.7,120.4l3.1,0.3l3,0.4l3,0.6l3,0.7l2.9,0.8l2.9,0.9l2.8,1l2.8,1.1l2.7,1.2l2.6,1.3
					l2.6,1.4l2.5,1.5l2.5,1.6l2.4,1.7l2.3,1.8l2.3,1.9l2.2,1.9l2.1,2l2,2.1l1.9,2.2l1.9,2.3l1.8,2.3l1.7,2.4l1.6,2.5l1.5,2.5
					l1.4,2.6l1.3,2.6l1.2,2.7l1.1,2.8l1,2.8l0.9,2.9l0.8,2.9l0.7,2.9l0.5,3l0.4,3l0.3,3.1l0.2,3.1l0.1,3.1l-0.1,3.1l-0.2,3.1
					l-0.3,3.1l-0.4,3l-0.5,3l-0.7,3l-0.8,2.9l-0.9,2.9l-1,2.8l-1.1,2.8l-1.2,2.7l-1.3,2.7l-1.4,2.6l-1.5,2.5l-1.5,2.4l48.1,48.1
					L287,307.5l-48.1-48.1l-2.4,1.5l-2.5,1.5l-2.6,1.4l-2.6,1.3l-2.7,1.2l-2.8,1.1l-2.8,1l-2.9,0.9l-2.9,0.8l-3,0.7l-3,0.6l-3,0.4
					l-3.1,0.3l-3.1,0.2l-3.1,0.1l-3.1-0.1l-3.1-0.2l-3.1-0.3l-3-0.4l-3-0.6l-3-0.7l-2.9-0.8l-2.9-0.9l-2.8-1l-2.8-1.1l-2.7-1.2
					l-2.6-1.3l-2.6-1.4l-2.5-1.5l-2.5-1.6l-2.4-1.7l-2.3-1.8l-2.3-1.9l-2.2-2l-2.1-2l-2-2.1l-1.9-2.2l-1.9-2.3l-1.8-2.3l-1.7-2.4
					l-1.6-2.5l-1.5-2.5l-1.4-2.6l-1.3-2.7l-1.2-2.7l-1.1-2.8l-1-2.8l-0.9-2.9l-0.8-2.9l-0.7-3l-0.5-3l-0.4-3l-0.3-3.1l-0.2-3.1
					l-0.1-3.1l0.1-3.1l0.2-3.1l0.3-3.1l0.4-3l0.5-3l0.7-2.9l0.8-2.9l0.9-2.9l1-2.8l1.1-2.8l1.2-2.7l1.3-2.6l1.4-2.6l1.5-2.5l1.6-2.5
					l1.7-2.4l1.8-2.3l1.9-2.3l1.9-2.2l2-2.1l2.1-2l2.2-1.9l2.3-1.9l2.3-1.8l2.4-1.7l2.5-1.6l2.5-1.5l2.6-1.4l2.6-1.3l2.7-1.2
					l2.8-1.1l2.8-1l2.9-0.9l2.9-0.8l3-0.7l3-0.6l3-0.4l3.1-0.3l3.1-0.2l3.1-0.1l3.1,0.1L202.7,120.4z M192.6,149.5l-1.9,0.2
					l-1.9,0.3l-1.9,0.3l-1.8,0.4l-1.8,0.5l-1.8,0.6l-1.7,0.6l-1.7,0.7l-1.7,0.7l-1.6,0.8l-1.6,0.9l-1.6,0.9l-1.5,1l-1.5,1l-1.4,1.1
					l-1.4,1.1l-1.3,1.2l-1.3,1.3l-1.3,1.3l-1.2,1.4l-1.1,1.4l-1.1,1.4l-1,1.5l-1,1.5l-0.9,1.6l-0.9,1.6l-0.8,1.6l-0.8,1.7l-0.7,1.7
					l-0.6,1.7l-0.5,1.8l-0.5,1.8l-0.4,1.8l-0.3,1.8l-0.3,1.9l-0.2,1.9l-0.1,1.9l0,1.9l0,1.9l0.1,1.9l0.2,1.9l0.3,1.9l0.3,1.8
					l0.4,1.8l0.5,1.8l0.5,1.8l0.6,1.7l0.7,1.7l0.8,1.7l0.8,1.6l0.9,1.6l0.9,1.6l1,1.5l1,1.5l1.1,1.4l1.1,1.4l1.2,1.4l1.3,1.3
					l1.3,1.3l1.3,1.2l1.4,1.1l1.4,1.1l1.5,1l1.5,1l1.6,0.9l1.6,0.9l1.6,0.8l1.7,0.7l1.7,0.7l1.7,0.6l1.8,0.5l1.8,0.5l1.8,0.4
					l1.9,0.3l1.9,0.3l1.9,0.2l1.9,0.1l1.9,0l1.9,0l1.9-0.1l1.9-0.2l1.9-0.3l1.9-0.3l1.8-0.4l1.8-0.5l1.8-0.5l1.7-0.6l1.7-0.7
					l1.7-0.7l1.6-0.8l1.6-0.9l1.6-0.9l1.5-1l1.5-1l1.4-1.1l1.4-1.1l1.3-1.2l1.3-1.3l1.3-1.3l1.2-1.4l1.1-1.4l1.1-1.4l1-1.5l1-1.5
					l0.9-1.6l0.9-1.6l0.8-1.6l0.8-1.7l0.7-1.7l0.6-1.7l0.5-1.8l0.5-1.8l0.4-1.8l0.3-1.8l0.3-1.9l0.2-1.9l0.1-1.9l0-1.9l0-1.9
					l-0.1-1.9l-0.2-1.9l-0.3-1.9l-0.3-1.8L242,185l-0.5-1.8l-0.5-1.8l-0.6-1.7l-0.7-1.7l-0.8-1.7l-0.8-1.6l-0.9-1.6l-0.9-1.6l-1-1.5
					l-1-1.5l-1.1-1.4l-1.1-1.4l-1.2-1.4l-1.3-1.3l-1.3-1.3l-1.3-1.2l-1.4-1.1l-1.4-1.1l-1.5-1l-1.5-1l-1.6-0.9l-1.6-0.9l-1.6-0.8
					l-1.7-0.7l-1.7-0.7l-1.7-0.6l-1.8-0.6l-1.8-0.5l-1.8-0.4l-1.9-0.3l-1.9-0.3l-1.9-0.2l-1.9-0.1l-1.9,0l-1.9,0L192.6,149.5z"/>
			</g>
		</g>
	</g>
</g>
</svg>
