<svg id="Слой_1" data-name="Слой 1" xmlns="http://www.w3.org/2000/svg" viewBox="0 0 414.73 418.32"><defs><style>.cls-1{fill:#3d9bdb;}.cls-2{fill:#fff;}</style></defs><title>2</title><path class="cls-1" d="M421.38,213.85C421.38,329.28,328.46,423,214,423S6.65,329.28,6.65,213.85,99.57,4.69,214,4.69,421.38,98.41,421.38,213.85Z" transform="translate(-6.65 -4.69)"/><path class="cls-2" d="M262.36,108.71a12.45,12.45,0,0,0-16.74,5.46L153,296.39a12.46,12.46,0,0,0,22.21,11.29l92.64-182.22A12.45,12.45,0,0,0,262.36,108.71Z" transform="translate(-6.65 -4.69)"/><path class="cls-2" d="M195.84,168.72A47.24,47.24,0,1,0,148.6,216,47.3,47.3,0,0,0,195.84,168.72ZM148.6,191.05a22.33,22.33,0,1,1,22.33-22.33A22.36,22.36,0,0,1,148.6,191.05Z" transform="translate(-6.65 -4.69)"/><path class="cls-2" d="M272.76,205.89A47.24,47.24,0,1,0,320,253.13,47.3,47.3,0,0,0,272.76,205.89Zm0,69.57a22.33,22.33,0,1,1,22.33-22.33A22.35,22.35,0,0,1,272.76,275.46Z" transform="translate(-6.65 -4.69)"/></svg>