<svg xmlns="http://www.w3.org/2000/svg" viewBox="0 0 426 428" width="426" height="428">
	<style>
		tspan { white-space:pre }
		.shp0 { fill: #3d9bdb } 
		.shp1 { fill: #ffffff } 
	</style>
	<g id="Layer">
		<g id="Layer">
			<g id="Layer">
				<path id="форма 1" class="shp0" d="M-26 -22L443 -22L443 456L-26 456L-26 -22Z" />
				<path id="форма 2" class="shp0" d="M488 339L588 339L588 439L488 439L488 339Z" />
				<path id="Layer" fill-rule="evenodd" class="shp1" d="M293.25 109.78C295.56 109.78 297.43 111.65 297.43 113.96L297.43 314.52C297.43 316.83 295.56 318.7 293.25 318.7L134.18 318.7C131.87 318.7 130 316.83 130 314.52L130.04 162.72C130.04 161.63 130.43 160.56 131.22 159.76L179.99 111C180.79 110.2 181.85 109.82 182.94 109.82L293.25 109.78ZM289.07 118.14L187.12 118.14L187.12 162.72C187.12 165.03 185.25 166.9 182.94 166.9L138.36 166.9L138.36 310.34L289.07 310.34L289.07 118.14ZM144.27 158.54L178.76 158.54L178.76 124.04L144.27 158.54Z" />
				<path id="Layer" class="shp1" d="M146.99 237.69C146.99 240 148.86 241.87 151.17 241.87L276.26 241.87C278.57 241.87 280.44 240 280.44 237.69C280.44 235.38 278.57 233.51 276.26 233.51L151.17 233.51C148.86 233.51 146.99 235.38 146.99 237.69L146.99 237.69Z" />
				<path id="Layer" class="shp1" d="M276.26 261.72L151.17 261.72C148.86 261.72 146.99 263.59 146.99 265.9C146.99 268.21 148.86 270.07 151.17 270.07L276.26 270.07C278.57 270.07 280.44 268.21 280.44 265.9C280.44 263.59 278.57 261.72 276.26 261.72L276.26 261.72Z" />
				<path id="Layer" class="shp1" d="M276.26 289.92L151.17 289.92C148.86 289.92 146.99 291.79 146.99 294.1C146.99 296.41 148.86 298.28 151.17 298.28L276.26 298.28C278.57 298.28 280.44 296.41 280.44 294.1C280.44 291.79 278.57 289.92 276.26 289.92L276.26 289.92Z" />
				<path id="Layer" fill-rule="evenodd" class="shp1" d="M201.18 169.32C201.18 148.98 217.75 132.43 238.12 132.43C258.46 132.43 275.01 148.98 275.01 169.32C275.01 189.67 258.46 206.22 238.12 206.22C217.75 206.22 201.18 189.67 201.18 169.32ZM238.12 140.78C222.36 140.78 209.54 153.58 209.54 169.32C209.54 185.06 222.36 197.86 238.12 197.86C253.85 197.86 266.65 185.06 266.65 169.32C266.65 153.58 253.85 140.78 238.12 140.78Z" />
				<path id="Layer" class="shp1" d="M222.93 172.77L233.85 172.77L233.85 183.69C233.85 185.82 235.57 187.54 237.7 187.54C239.83 187.54 241.56 185.82 241.56 183.69L241.56 172.77L252.48 172.77C254.6 172.77 256.33 171.05 256.33 168.92C256.33 166.79 254.6 165.07 252.48 165.07L241.56 165.07L241.56 154.15C241.56 152.02 239.83 150.29 237.7 150.29C235.57 150.29 233.85 152.02 233.85 154.15L233.85 165.07L222.93 165.07C220.8 165.07 219.08 166.79 219.08 168.92C219.08 171.05 220.8 172.77 222.93 172.77L222.93 172.77Z" />
			</g>
		</g>
		<g id="Layer">
		</g>
	</g>
</svg>