<svg id="Слой_1" data-name="Слой 1" xmlns="http://www.w3.org/2000/svg" viewBox="0 0 414.73 418.32"><defs><style>.cls-1{fill:#3d9bdb;}.cls-2{fill:#fff;}</style></defs><title>3</title><path class="cls-1" d="M421.38,213.85C421.38,329.28,328.46,423,214,423S6.65,329.28,6.65,213.85,99.57,4.69,214,4.69,421.38,98.41,421.38,213.85Z" transform="translate(-6.65 -4.69)"/><path class="cls-2" d="M203.18,177.5a5.84,5.84,0,1,1,0-11.67h58.37a5.84,5.84,0,1,1,0,11.67Zm-23.35,35a5.84,5.84,0,0,1,0-11.68h81.72a5.84,5.84,0,0,1,0,11.68Zm0,35a5.84,5.84,0,1,1,0-11.67H238.2a5.84,5.84,0,1,1,0,11.67Zm23.35-128.42a5.84,5.84,0,0,1,0-11.68H284.9a29.19,29.19,0,0,1,29.19,29.19V288.41A29.19,29.19,0,0,1,284.9,317.6H156.48a29.19,29.19,0,0,1-29.19-29.19V230A5.84,5.84,0,1,1,139,230v58.37a17.52,17.52,0,0,0,17.52,17.52H284.9a17.52,17.52,0,0,0,17.51-17.52V136.64a17.51,17.51,0,0,0-17.51-17.51ZM139,160a5.84,5.84,0,1,1-11.67,0V119.13a23.35,23.35,0,0,1,46.7,0V160a40.86,40.86,0,0,1-81.72,0V101.62a5.84,5.84,0,1,1,11.67,0V160a29.19,29.19,0,1,0,58.37,0V119.13a11.68,11.68,0,1,0-23.35,0Z" transform="translate(-6.65 -4.69)"/></svg>