<svg id="Слой_1" data-name="Слой 1" xmlns="http://www.w3.org/2000/svg" viewBox="0 0 414.73 418.32"><defs><style>.cls-1{fill:#3d9bdb;}.cls-2{fill:#fff;}</style></defs><title>4</title><path class="cls-1" d="M421.38,213.85C421.38,329.28,328.46,423,214,423S6.65,329.28,6.65,213.85,99.57,4.69,214,4.69,421.38,98.41,421.38,213.85Z" transform="translate(-6.65 -4.69)"/><path class="cls-2" d="M325.55,124.1H101.92a7.45,7.45,0,0,0-7.45,7.45v164a7.45,7.45,0,0,0,7.45,7.45H325.55a7.46,7.46,0,0,0,7.45-7.45v-164A7.46,7.46,0,0,0,325.55,124.1Zm0,166.15-76.71-76.7,76.71-76.7Zm-5.3-158.7L213.73,238.07,107.21,131.55Zm-218.33,5.3,76.7,76.7-76.7,76.7Zm82,82L211.06,246a3.83,3.83,0,0,0,5.35,0l27.14-27.15,76.7,76.71h-213Z" transform="translate(-6.65 -4.69)"/></svg>