<svg id="Слой_1" data-name="Слой 1" xmlns="http://www.w3.org/2000/svg" viewBox="0 0 414.73 418.32"><defs><style>.cls-1{fill:#3d9bdb;}.cls-2{fill:#fff;}</style></defs><title>5</title><path class="cls-1" d="M421.38,213.85C421.38,329.28,328.46,423,214,423S6.65,329.28,6.65,213.85,99.57,4.69,214,4.69,421.38,98.41,421.38,213.85Z" transform="translate(-6.65 -4.69)"/><path class="cls-2" d="M317.5,142.38H70V292H358V142.38Zm29.25,110.81q-21.37,6.18-27.56,27.56H108.81q-6.18-21.37-27.56-27.56v-72q21.38-6.19,27.56-27.56H319.19q6.18,20.81,27.56,27.56Z" transform="translate(-6.65 -4.69)"/><path class="cls-2" d="M214,159.81q-21.37,0-36.56,16.88t-15.19,40.5q0,23.63,15.19,40.5T214,274.56q21.38,0,36.56-16.87t15.19-40.5q0-23.62-15.19-40.5T214,159.81Zm21.94,90q-5.07,4.5-16.31,6.19v7.31H208.38V256q-10.69-1.68-15.19-5.06a19.74,19.74,0,0,1-7.88-16.31h14.07c.37,0,.65.37.84,1.12s.47,1.69.84,2.81a6,6,0,0,0,1.13,2.25q1.13,1.13,6.19,2.25V223.94q-10.69-2.82-14.63-5.63-7.32-5.06-7.31-15.18t7.31-16.32q5.07-5.06,14.63-6.18v-9.57h11.25v10.13q6.18,1.13,13.5,6.19a23.27,23.27,0,0,1,4.78,3.93,20,20,0,0,1,2.81,5.35,36.34,36.34,0,0,1,2,9.28H228.06q-.56-7.32-6.75-10.13l-1.68-1.12v18l5.06.56q10.13,2.82,13.5,5.63,6.18,4.49,6.19,14.62Q244.38,243.06,235.94,249.81Z" transform="translate(-6.65 -4.69)"/><path class="cls-2" d="M226.38,229a24.15,24.15,0,0,0-6.75-2.25v16.88l1.4-.29a12.66,12.66,0,0,1,2-.28q6.18-2.25,6.19-8.43A7,7,0,0,0,226.38,229Z" transform="translate(-6.65 -4.69)"/><path class="cls-2" d="M200.5,202c0,2.25,1.13,4.12,3.38,5.63a42.11,42.11,0,0,0,4.5,1.68V193.56a12.57,12.57,0,0,0-4.5,1.69A7.58,7.58,0,0,0,200.5,202Z" transform="translate(-6.65 -4.69)"/></svg>