<svg xmlns="http://www.w3.org/2000/svg" viewBox="0 0 241 279" width="241" height="279">
	<style>
		tspan { white-space:pre }
		.shp0 { fill: #3e9cdc } 
		.shp1 { fill: #08153e } 
	</style>
	<path id="Layer" fill-rule="evenodd" class="shp0" d="M27 133.96C27 119.19 28.24 109.82 58.82 87C84.14 68.1 165.29 3.52 165.29 3.52L165.29 111.32L227 111.32L227 266.49L46.28 266.49C35.68 266.49 27 257.81 27 247.21L27 133.96L27 133.96Z" />
	<path id="Layer" fill-rule="evenodd" class="shp1" d="M165.29 111.32L165.29 173.79L51.89 251.04L195.26 204.39L195.26 111.32L165.29 111.32Z" />
	<path id="Layer" fill-rule="evenodd" class="shp1" d="M113.47 108.09C120.1 100.19 129.78 97.4 135.1 101.86C140.42 106.33 139.36 116.35 132.72 124.25C126.1 132.15 116.41 134.94 111.09 130.48C105.77 126.01 106.84 115.99 113.47 108.09L113.47 108.09Z" />
</svg>