<?xml version="1.0" encoding="utf-8"?>
<!-- Generator: Adobe Illustrator 24.0.0, SVG Export Plug-In . SVG Version: 6.00 Build 0)  -->
<svg version="1.1" id="Слой_1" xmlns="http://www.w3.org/2000/svg" xmlns:xlink="http://www.w3.org/1999/xlink" x="0px" y="0px"
	 viewBox="0 0 426 428" style="enable-background:new 0 0 426 428;" xml:space="preserve">
<style type="text/css">
	.st0{fill:#3D9BDB;}
	.st1{display:none;fill:#3D9BDB;}
	.st2{display:none;fill-rule:evenodd;clip-rule:evenodd;fill:#FFFFFF;}
	.st3{display:none;}
</style>
<g id="Layer_3_">
	<g id="Layer_1_">
		<g id="Layer">
			<path id="форма_1" class="st0" d="M-26-22h469v478H-26V-22z"/>
			<path id="форма_2" class="st1" d="M488,339h100v100H488V339z"/>
			<path id="XMLID_223_" class="st2" d="M292,293c-5.4,5.4-14.2,5.4-19.6,0l-35.1-35.1c-10.9,7.3-24,11.5-38.1,11.5
				c-38.1,0-69.2-31-69.2-69.2s31-69.2,69.2-69.2s69.2,31,69.2,69.2c0,14.1-4.3,27.2-11.5,38.1l35.1,35.1
				C297.4,278.8,297.4,287.5,292,293z M199.2,248.6c26.7,0,48.4-21.7,48.4-48.4s-21.7-48.4-48.4-48.4s-48.4,21.7-48.4,48.4
				S172.5,248.6,199.2,248.6z"/>
		</g>
	</g>
	<g id="Layer_2_" class="st3">
	</g>
</g>
</svg>
