<svg xmlns="http://www.w3.org/2000/svg" viewBox="0 0 474 374" width="474" height="374">
	<style>
		tspan { white-space:pre }
		.shp0 { fill: #3e9cdc } 
	</style>
	<g id="Layer">
		<g id="Layer">
			<path id="Layer" fill-rule="evenodd" class="shp0" d="M489.33 35.47L489.33 345.87C489.33 370.4 469.07 391.73 443.47 391.73L33.87 391.73C8.27 391.73 -12 371.47 -12 345.87L-12 35.47C-12 9.87 8.27 -10.4 33.87 -10.4L443.47 -10.4C469.07 -10.4 489.33 9.87 489.33 35.47ZM59.47 31.2L238.67 192.27L418.93 31.2L59.47 31.2ZM447.73 345.87L447.73 62.13L252.53 236C248.27 239.2 244 241.33 238.67 241.33C233.33 241.33 229.07 239.2 224.8 236L29.6 62.13L29.6 345.87C29.6 348 31.73 350.13 33.87 350.13L443.47 350.13C445.6 350.13 447.73 348 447.73 345.87L447.73 345.87Z" />
		</g>
	</g>
	<g id="Layer">
	</g>
	<g id="Layer">
	</g>
	<g id="Layer">
	</g>
	<g id="Layer">
	</g>
	<g id="Layer">
	</g>
	<g id="Layer">
	</g>
	<g id="Layer">
	</g>
</svg>