<svg xmlns="http://www.w3.org/2000/svg" viewBox="0 0 50 50" width="50" height="50">
	<style>
		tspan { white-space:pre }
		.shp0 { fill: #3e9cdc } 
	</style>
	<path id="Layer" fill-rule="evenodd" class="shp0" d="M46 22.5C46 25.96 45.21 29.31 43.66 32.44C43.47 32.82 43.07 33.04 42.65 32.99C42.23 32.94 41.89 32.63 41.79 32.22C41.79 32.2 41.05 29.2 37.96 27.22C36.1 26.02 34.02 26 34 26C33.46 26 33.01 25.56 33 25.02C33 24.5 33.42 24 34 24C34.13 24 36 24 37.89 24.3C37.96 23.7 38 23.1 38 22.5C38 14.51 31.5 8 23.5 8C15.51 8 9 14.51 9 22.5C9 30.5 15.51 37 23.5 37C23.77 37 24.06 36.99 24.35 36.97C24.01 35.09 24 33.1 24 33C24 32.48 24.39 32.05 24.91 32C25.42 31.96 25.89 32.31 25.98 32.82C25.99 32.83 26.38 34.75 28.44 36.66C30.03 38.13 32.2 39.21 34.9 39.88L35.19 39.96C46.09 42.48 48.8 48.34 48.91 48.59C49.11 49.04 48.96 49.57 48.54 49.84C48.37 49.95 48.19 50 48 50C47.72 50 47.44 49.88 47.25 49.66C47.2 49.6 42.16 44 34 44C32.31 44 30.98 44.22 29.56 44.44C27.94 44.7 26.09 45 23.5 45C11.09 45 1 34.91 1 22.5C1 10.09 11.09 0 23.5 0C35.91 0 46 10.09 46 22.5ZM38.9 32.06C39.61 32.32 39.89 33.37 39.97 33.85C40.09 34.66 39.83 35 39.56 35C39.27 35 38.9 34.67 38.47 34.02C38.04 33.38 37.88 32.65 38.09 32.28C38.2 32.09 38.39 31.99 38.63 32C38.72 32.01 38.8 32.03 38.9 32.06ZM36.98 35.5C37.97 36.17 38.27 36.96 37.75 37.52C37.45 37.83 36.98 38 36.41 38C35.86 38 35.29 37.84 34.89 37.56C33.99 36.94 33.72 35.92 34.31 35.34C34.54 35.12 34.92 35 35.37 35C35.91 35 36.48 35.17 36.98 35.5Z" />
</svg>