<svg xmlns="http://www.w3.org/2000/svg" viewBox="0 0 323 345" width="323" height="345">
	<style>
		tspan { white-space:pre }
		.shp0 { fill: #3e9cdc } 
	</style>
	<path id="Layer" fill-rule="evenodd" class="shp0" d="M184.19 326.47L31.5 326.47L31.5 14.53L177.03 14.53C210.85 14.53 235.52 22.83 251.02 39.44C266.52 56.05 274.27 68.95 274.27 90.28C274.27 105.82 269.77 119.89 260.77 132.46C251.76 145.03 238.34 150.23 220.48 154.95C261.98 164.7 291.62 191.74 291.62 230.43C291.62 253.59 284.29 274.27 269.65 292.48C255.01 310.69 232.11 326.47 184.19 326.47ZM112.43 76.22L112.43 134.05L150.49 134.05C161.91 134.05 169.98 131.23 174.68 125.6C179.38 119.96 181.73 107.93 181.73 101.53C181.73 84.16 170.76 76.22 148.84 76.22L112.43 76.22ZM112 257L159.92 257C171.82 257 180.55 254.15 186.11 248.43C191.67 242.71 194.45 236.28 194.45 229.12C194.45 221.96 191.75 215.37 186.35 209.35C180.94 203.33 171.04 200.32 156.63 200.32L112 200.32L112 257Z" />
	<g id="Layer">
	</g>
</svg>