<svg xmlns="http://www.w3.org/2000/svg" viewBox="0 0 43 42" width="43" height="42">
	<style>
		tspan { white-space:pre }
		.shp0 { fill: #0277bd } 
		.shp1 { fill: #3e9cdc } 
	</style>
	<path id="Layer" class="shp0" d="M14.84 11.53L19.67 7.28L23.91 12.11L19.08 16.36L14.84 11.53Z" />
	<path id="Layer" class="shp0" d="M18.33 19.81L23.16 15.57L27.41 20.39L22.58 24.64L18.33 19.81Z" />
	<path id="Layer" class="shp0" d="M21.64 27.99L26.47 23.75L30.71 28.58L25.88 32.82L21.64 27.99Z" />
	<path id="Layer" class="shp0" d="M32.92 31.31L36.67 28.01L39.96 31.76L36.21 35.06L32.92 31.31Z" />
	<path id="Layer" class="shp0" d="M29.89 23.99L33.54 20.78L36.75 24.43L33.1 27.64L29.89 23.99Z" />
	<path id="Layer" class="shp0" d="M26.83 16.42L30.48 13.22L33.69 16.87L30.04 20.08L26.83 16.42Z" />
	<path id="Layer" class="shp0" d="M23.57 9.34L27.22 6.13L30.43 9.78L26.78 12.99L23.57 9.34Z" />
	<path id="Layer" class="shp0" d="M31.54 7.64L33.91 5.56L36 7.93L33.63 10.02L31.54 7.64Z" />
	<path id="Layer" class="shp0" d="M34.55 14.73L36.93 12.64L39.02 15.02L36.64 17.11L34.55 14.73Z" />
	<path id="Layer" class="shp0" d="M37.52 21.81L39.9 19.73L41.99 22.1L39.61 24.19L37.52 21.81Z" />
	<path id="Layer" class="shp1" d="M14.84 11.53L19.67 7.28L23.91 12.11L19.08 16.36L14.84 11.53Z" />
	<path id="Layer" class="shp1" d="M18.33 19.81L23.16 15.57L27.41 20.4L22.58 24.64L18.33 19.81Z" />
	<path id="Layer" class="shp1" d="M21.64 27.99L26.47 23.75L30.71 28.58L25.88 32.82L21.64 27.99Z" />
	<path id="Layer" class="shp1" d="M32.92 31.31L36.67 28.01L39.96 31.76L36.21 35.06L32.92 31.31Z" />
	<path id="Layer" class="shp1" d="M29.89 23.99L33.54 20.78L36.75 24.43L33.1 27.64L29.89 23.99Z" />
	<path id="Layer" class="shp1" d="M26.83 16.42L30.48 13.22L33.69 16.87L30.04 20.08L26.83 16.42Z" />
	<path id="Layer" class="shp1" d="M23.57 9.34L27.22 6.13L30.43 9.78L26.78 12.99L23.57 9.34Z" />
	<path id="Layer" class="shp1" d="M31.54 7.64L33.91 5.56L36 7.93L33.63 10.02L31.54 7.64Z" />
	<path id="Layer" class="shp1" d="M34.55 14.73L36.93 12.64L39.02 15.02L36.64 17.11L34.55 14.73Z" />
	<path id="Layer" class="shp1" d="M37.52 21.81L39.9 19.73L41.99 22.1L39.61 24.19L37.52 21.81Z" />
	<path id="Layer" class="shp1" d="M30.37 32.2L25.65 36.35L18.11 27.77L20.3 25.84L14.8 19.58L16.94 17.71L11.31 11.3L19.9 3.75L22.61 6.85L27.45 2.6L30.08 5.59L32.14 3.78C29.17 2.03 25.71 1 22 1C10.95 1 2 9.95 2 21C2 32.05 10.95 41 22 41C26.66 41 30.94 39.39 34.34 36.72L30.37 32.2Z" />
</svg>